<svg xmlns="http://www.w3.org/2000/svg" viewBox="0 0 800 500"><defs><style>.cls-1{fill:#fff;}</style></defs><g id="Livello_2" data-name="Livello 2"><rect class="cls-1" width="800" height="500"/></g><g id="Livello_1" data-name="Livello 1"><path d="M400.42,81.5C307.36,81.41,231.59,157,231.5,250.08S307,418.91,400.08,419,568.91,343.46,569,250.42,493.47,81.59,400.42,81.5Zm-.31,311.36c-78.63-.08-142.55-64.12-142.47-142.75s64.13-142.55,142.75-142.47,142.55,64.12,142.47,142.75S478.74,392.94,400.11,392.86Z"/><path d="M467.17,236.67H413.64V183.13a13.39,13.39,0,0,0-26.78,0v53.54H333.33a13.39,13.39,0,1,0,0,26.77h53.53V317a13.39,13.39,0,0,0,26.78,0V263.44h53.53a13.39,13.39,0,1,0,0-26.77Z"/></g></svg>